<svg xmlns="http://www.w3.org/2000/svg" width="375" height="808"><defs><clipPath id="Clip_1"><path d="M53.091 348.574H332.18v457.701H53.091z"/></clipPath><clipPath id="Clip_2"><path d="M50.441 40.16h110.61v140.515H50.441z"/></clipPath><clipPath id="Clip_3"><path d="M124.159 276.665h18.222v16.345h-18.222z"/></clipPath><clipPath id="Clip_4"><path d="M170.917 38.835h29.818V64.26h-29.818z"/></clipPath></defs><g id="cone"><g clip-path="url('#Clip_1')" opacity=".68"><path d="m53.09 348.575 141.604 457.7 137.488-453.16z" fill="#F8AD48"/></g><path d="m181.456 760.868 20.704 19.071-6.625 26.335zM174.555 742.705l54.659-49.947 18.219-63.57-82.816 79.008zM146.602 650.075l134.1-128.955 21.391-67.202-166.186 161.648zM117.687 556.538l202.901-197.065-55.487-.909-159.836 156.2zM152.47 349.483l-73.707 79.916 9.11 32.692 111.803-108.068z" fill="#F8AD48"/><path d="m126.797 583.782 105.177 98.078-11.594 39.05-73.707-70.834zM73.794 414.869l185.51 177.086-10.767 37.234L92.014 473.897zM289.118 495.693l-11.595 37.233L82.904 347.667h57.144zM220.38 350.391l86.129 87.181 11.594-36.326-49.69-52.672z" fill="#F8AD48"/></g><g id="strawberry"><path d="M345.043 339.024a127.489 127.489 0 0 0 6.741-40.959c0-77.643-69.72-140.593-155.749-140.593-86.023 0-155.736 62.95-155.736 140.593 0 14.249 2.354 27.998 6.737 40.959-16.424 6.221-27.959 20.873-27.959 37.961 0 22.735 20.408 41.156 45.595 41.156 20.561 0 37.958-12.297 43.622-29.191 5.692 16.894 23.061 29.191 43.646 29.191 21.233 0 39.044-13.131 44.095-30.894 5.069 17.763 22.875 30.894 44.104 30.894 20.598 0 37.966-12.297 43.654-29.204 5.664 16.907 23.029 29.204 43.618 29.204 25.184 0 45.591-18.421 45.591-41.156 0-17.088-11.539-31.729-27.959-37.961" fill="#EE569E"/><path d="M337.463 251.963c2.981-13.156 3.873-27.075 2.388-41.44-8.15-78.307-83.738-140.421-168.85-138.724-85.128 1.696-147.513 66.556-139.386 144.857 1.5 14.371 5.279 28.192 10.966 41.174-15.595 6.598-25.477 21.598-23.687 38.834 2.382 22.933 24.506 41.108 49.432 40.605 20.366-.397 36.273-13.143 40.104-30.296 7.406 16.927 25.882 28.987 46.237 28.579 21.026-.417 37.271-14.011 40.413-32.027 6.872 17.815 25.858 30.716 46.874 30.288 20.391-.399 36.278-13.145 40.138-30.303 7.376 16.932 25.848 28.994 46.215 28.589 24.913-.498 43.168-19.478 40.797-42.405-1.79-17.238-14.734-31.771-31.641-37.731" fill="#F181B2"/><path d="M331.28 181.185c4.924-13.392 7.822-27.504 8.383-42.021 3.02-79.102-64.55-140.241-150.962-136.529-86.405 3.7-158.884 70.841-161.92 149.95-.545 14.513 1.286 28.432 5.18 41.44-16.742 7.042-28.907 22.467-29.574 39.881-.882 23.165 18.896 41.057 44.201 39.964 20.659-.885 38.593-14.162 44.951-31.621 5.061 16.97 22.022 28.747 42.691 27.865 21.345-.915 39.739-15.064 45.51-33.378 4.389 17.876 21.762 30.489 43.105 29.576 20.671-.888 38.6-14.169 44.961-31.634 5.043 16.985 22.004 28.762 42.684 27.874 25.293-1.086 46.505-20.733 47.4-43.895.663-17.413-10.348-31.83-26.61-37.472" fill="#F6B9D3"/><g clip-path="url('#Clip_2')" opacity=".27"><path d="M143.209 40.513S60.344 57.3 50.441 176.754c0 0 6.626 10.899 21.535-3.633 0 0 38.102-110.809 84.486-110.809 0 0 16.566-25.432-13.253-21.799" fill="#FEFEFE"/></g><path d="M274.079 372.032c0 7.524-5.191 13.624-11.596 13.624-6.404 0-11.596-6.1-11.596-13.624 0-7.525 5.192-13.624 11.596-13.624 6.405 0 11.596 6.099 11.596 13.624M95.169 298.462c0 6.019-4.079 10.899-9.111 10.899-5.032 0-9.112-4.88-9.112-10.899 0-6.02 4.08-10.899 9.112-10.899s9.111 4.879 9.111 10.899" fill="#F181B2"/><g clip-path="url('#Clip_3')" opacity=".4"><path d="M142.381 284.838c0 4.514-4.079 8.174-9.111 8.174-5.032 0-9.111-3.66-9.111-8.174 0-4.515 4.079-8.175 9.111-8.175 5.032 0 9.111 3.66 9.111 8.175" fill="#F181B2"/></g><path d="m74.558 370.215-.387 3.61c-.426 3.968-3.736 6.833-7.355 6.366l-14.808-1.911c-3.619-.467-6.232-4.096-5.806-8.065l.387-3.609c.426-3.969 3.736-6.834 7.355-6.367l14.808 1.911c3.62.467 6.232 4.097 5.806 8.065M162.527 360.224h-2.19c-5.776 0-10.501-4.726-10.501-10.501v-4.43c0-5.775 4.725-10.501 10.501-10.501h2.19c5.775 0 10.501 4.726 10.501 10.501v4.43c0 5.775-4.726 10.501-10.501 10.501" fill="#F181B2"/><g clip-path="url('#Clip_4')" opacity=".27"><path d="M194.733 64.262h-17.816c-3.3 0-6-2.7-6-6V44.833c0-3.3 2.7-6 6-6h17.816c3.3 0 6 2.7 6 6v13.429c0 3.3-2.7 6-6 6" fill="#FEFEFE"/></g></g></svg>